<svg data-v-fde0c5aa="" xmlns="http://www.w3.org/2000/svg" viewBox="0 0 300 300" class="iconLeft">
    <defs data-v-fde0c5aa="">
    </defs>
    <rect data-v-fde0c5aa="" fill="#F2C70C" x="0" y="0" width="300px" height="300px"
        class="logo-background-square"></rect>
    <defs data-v-fde0c5aa="">
    </defs>
    <g data-v-fde0c5aa="" id="01b755d8-fa45-4f50-8eb5-e2bd1f74c884" fill="#ffffff"
        transform="matrix(1.5643508434295654,0,0,1.5643508434295654,122.72821502488591,130.06234807647525)">
        <path
            d="M9.06 11.96L9.06 11.96L9.06 11.96Q8.92 12.09 8.76 12.23L8.76 12.23L8.76 12.23Q8.61 12.36 8.43 12.50L8.43 12.50L8.43 12.50Q8.60 12.91 8.77 13.29L8.77 13.29L8.77 13.29Q8.93 13.67 9.08 13.99L9.08 13.99L9.08 13.99Q9.23 14.31 9.36 14.55L9.36 14.55L9.36 14.55Q9.49 14.79 9.59 14.93L9.59 14.93L9.59 14.93Q9.73 15.13 9.91 15.28L9.91 15.28L9.91 15.28Q10.07 15.41 10.28 15.51L10.28 15.51L10.28 15.51Q10.49 15.62 10.74 15.62L10.74 15.62L10.74 15.62Q10.99 15.62 11.29 15.45L11.29 15.45L11.29 15.45Q11.04 15.71 10.76 15.96L10.76 15.96L10.76 15.96Q10.49 16.21 10.18 16.41L10.18 16.41L10.18 16.41Q9.88 16.60 9.55 16.73L9.55 16.73L9.55 16.73Q9.23 16.85 8.89 16.85L8.89 16.85L8.89 16.85Q8.63 16.85 8.41 16.70L8.41 16.70L8.41 16.70Q8.19 16.54 7.98 16.15L7.98 16.15L7.98 16.15Q7.90 16.03 7.78 15.76L7.78 15.76L7.78 15.76Q7.66 15.49 7.50 15.12L7.50 15.12L7.50 15.12Q7.33 14.75 7.14 14.29L7.14 14.29L7.14 14.29Q6.95 13.84 6.75 13.34L6.75 13.34L6.75 13.34Q6.32 13.47 5.81 13.54L5.81 13.54L5.81 13.54Q5.31 13.62 4.73 13.62L4.73 13.62L2.71 13.62L2.15 14.93L2.15 14.93Q2.11 15.06 2.09 15.19L2.09 15.19L2.09 15.19Q2.07 15.33 2.11 15.44L2.11 15.44L2.11 15.44Q2.15 15.54 2.27 15.62L2.27 15.62L2.27 15.62Q2.39 15.69 2.63 15.69L2.63 15.69L2.63 15.69Q2.77 15.69 2.94 15.66L2.94 15.66L2.94 15.66Q3.11 15.63 3.33 15.58L3.33 15.58L3.33 15.58Q2.95 15.94 2.67 16.19L2.67 16.19L2.67 16.19Q2.39 16.45 2.13 16.60L2.13 16.60L2.13 16.60Q1.88 16.76 1.62 16.83L1.62 16.83L1.62 16.83Q1.36 16.91 1.03 16.91L1.03 16.91L1.03 16.91Q0.83 16.91 0.74 16.81L0.74 16.81L0.74 16.81Q0.66 16.71 0.66 16.54L0.66 16.54L0.66 16.54Q0.66 16.32 0.77 16.01L0.77 16.01L0.77 16.01Q0.88 15.70 1.05 15.31L1.05 15.31L1.05 15.31Q1.20 14.96 1.61 14.02L1.61 14.02L1.61 14.02Q1.79 13.62 2.04 13.04L2.04 13.04L2.04 13.04Q2.30 12.47 2.65 11.69L2.65 11.69L2.65 11.69Q2.99 10.90 3.44 9.88L3.44 9.88L3.44 9.88Q3.89 8.87 4.46 7.58L4.46 7.58L4.79 7.31L4.79 7.31Q4.79 7.10 4.82 6.95L4.82 6.95L4.82 6.95Q4.85 6.79 4.92 6.67L4.92 6.67L4.92 6.67Q4.98 6.55 5.07 6.45L5.07 6.45L5.07 6.45Q5.16 6.36 5.26 6.27L5.26 6.27L5.26 6.27Q5.39 6.17 5.56 6.03L5.56 6.03L5.56 6.03Q5.84 5.80 6.40 5.33L6.40 5.33L6.40 5.33Q6.32 5.49 6.29 5.68L6.29 5.68L6.29 5.68Q6.25 5.88 6.25 6.07L6.25 6.07L6.25 6.07Q6.25 6.27 6.28 6.45L6.28 6.45L6.28 6.45Q6.30 6.63 6.32 6.77L6.32 6.77L6.32 6.77Q6.35 6.93 6.40 7.07L6.40 7.07L6.40 7.07Q6.47 7.31 6.66 7.85L6.66 7.85L6.66 7.85Q6.84 8.38 7.10 9.07L7.10 9.07L7.10 9.07Q7.36 9.77 7.66 10.55L7.66 10.55L7.66 10.55Q7.96 11.34 8.26 12.09L8.26 12.09L8.26 12.09Q8.46 12.07 8.61 12.04L8.61 12.04L8.61 12.04Q8.76 12.01 8.86 12.00L8.86 12.00L8.86 12.00Q8.98 11.98 9.06 11.96ZM4.98 8.62L4.98 8.62L4.98 8.62Q4.50 9.68 4.07 10.61L4.07 10.61L4.07 10.61Q3.64 11.53 3.25 12.44L3.25 12.44L3.25 12.44Q4.16 12.42 4.93 12.38L4.93 12.38L4.93 12.38Q5.69 12.34 6.32 12.28L6.32 12.28L6.32 12.28Q6.10 11.75 5.90 11.22L5.90 11.22L5.90 11.22Q5.69 10.69 5.52 10.21L5.52 10.21L5.52 10.21Q5.35 9.73 5.21 9.32L5.21 9.32L5.21 9.32Q5.07 8.91 4.98 8.62ZM19.98 12.47L19.98 12.47L19.98 12.47Q19.98 13.07 19.75 13.61L19.75 13.61L19.75 13.61Q19.52 14.15 19.13 14.62L19.13 14.62L19.13 14.62Q18.74 15.08 18.23 15.46L18.23 15.46L18.23 15.46Q17.72 15.85 17.16 16.13L17.16 16.13L17.16 16.13Q16.60 16.41 16.04 16.57L16.04 16.57L16.04 16.57Q15.47 16.74 14.97 16.78L14.97 16.78L14.97 16.78Q14.75 16.80 14.45 16.78L14.45 16.78L14.45 16.78Q14.15 16.75 13.83 16.67L13.83 16.67L13.83 16.67Q13.51 16.58 13.20 16.41L13.20 16.41L13.20 16.41Q12.89 16.24 12.65 15.94L12.65 15.94L12.65 15.94Q12.40 15.65 12.25 15.21L12.25 15.21L12.25 15.21Q12.10 14.78 12.10 14.18L12.10 14.18L12.10 14.18Q12.10 13.73 12.11 13.13L12.11 13.13L12.11 13.13Q12.12 12.52 12.13 11.84L12.13 11.84L12.13 11.84Q12.15 11.15 12.16 10.41L12.16 10.41L12.16 10.41Q12.18 9.68 12.20 8.96L12.20 8.96L12.20 8.96Q12.22 8.24 12.24 7.58L12.24 7.58L12.24 7.58Q12.26 6.91 12.27 6.36L12.27 6.36L12.27 6.36Q12.28 5.82 12.28 5.42L12.28 5.42L12.28 5.42Q12.29 5.02 12.28 4.85L12.28 4.85L12.28 4.85Q12.26 4.61 12.14 4.44L12.14 4.44L12.14 4.44Q12.04 4.29 11.83 4.21L11.83 4.21L11.83 4.21Q11.62 4.12 11.25 4.22L11.25 4.22L11.25 4.22Q11.50 4.09 11.77 3.94L11.77 3.94L11.77 3.94Q12.04 3.79 12.31 3.67L12.31 3.67L12.31 3.67Q12.58 3.55 12.86 3.48L12.86 3.48L12.86 3.48Q13.13 3.40 13.41 3.40L13.41 3.40L13.41 3.40Q13.56 3.40 13.69 3.42L13.69 3.42L13.69 3.42Q13.82 3.45 13.92 3.52L13.92 3.52L13.92 3.52Q14.02 3.60 14.08 3.71L14.08 3.71L14.08 3.71Q14.14 3.83 14.14 4.00L14.14 4.00L14.14 4.00Q14.14 4.12 14.14 4.46L14.14 4.46L14.14 4.46Q14.13 4.81 14.12 5.31L14.12 5.31L14.12 5.31Q14.11 5.82 14.09 6.45L14.09 6.45L14.09 6.45Q14.08 7.08 14.06 7.76L14.06 7.76L14.06 7.76Q14.04 8.45 14.02 9.16L14.02 9.16L14.02 9.16Q14.01 9.88 13.99 10.55L13.99 10.55L13.99 10.55Q14.35 10.30 14.72 10.09L14.72 10.09L14.72 10.09Q15.09 9.88 15.47 9.74L15.47 9.74L15.47 9.74Q15.86 9.59 16.26 9.51L16.26 9.51L16.26 9.51Q16.66 9.42 17.08 9.42L17.08 9.42L17.08 9.42Q17.77 9.42 18.31 9.67L18.31 9.67L18.31 9.67Q18.85 9.93 19.22 10.35L19.22 10.35L19.22 10.35Q19.59 10.77 19.79 11.32L19.79 11.32L19.79 11.32Q19.98 11.87 19.98 12.47ZM13.93 13.79L13.93 13.79L13.93 13.79Q13.93 14.13 14.14 14.51L14.14 14.51L14.14 14.51Q14.35 14.89 14.70 15.21L14.70 15.21L14.70 15.21Q15.05 15.53 15.50 15.74L15.50 15.74L15.50 15.74Q15.95 15.96 16.44 15.96L16.44 15.96L16.44 15.96Q16.92 15.96 17.25 15.72L17.25 15.72L17.25 15.72Q17.58 15.49 17.79 15.13L17.79 15.13L17.79 15.13Q17.99 14.77 18.08 14.34L18.08 14.34L18.08 14.34Q18.18 13.91 18.18 13.52L18.18 13.52L18.18 13.52Q18.18 12.89 17.97 12.33L17.97 12.33L17.97 12.33Q17.77 11.76 17.39 11.34L17.39 11.34L17.39 11.34Q17.02 10.91 16.50 10.66L16.50 10.66L16.50 10.66Q15.98 10.41 15.36 10.41L15.36 10.41L15.36 10.41Q15.11 10.41 14.91 10.45L14.91 10.45L14.91 10.45Q14.71 10.48 14.60 10.53L14.60 10.53L14.60 10.53Q14.50 10.59 14.41 10.74L14.41 10.74L14.41 10.74Q14.31 10.89 14.23 11.10L14.23 11.10L14.23 11.10Q14.15 11.31 14.08 11.57L14.08 11.57L14.08 11.57Q14.01 11.83 13.96 12.11L13.96 12.11L13.96 12.11Q13.95 12.71 13.94 13.16L13.94 13.16L13.94 13.16Q13.93 13.61 13.93 13.79ZM23.47 15.78L23.47 15.78L21.83 16.96L21.83 16.96Q21.85 15.18 21.88 13.77L21.88 13.77L21.88 13.77Q21.91 12.35 21.93 11.25L21.93 11.25L21.93 11.25Q21.94 10.14 21.96 9.33L21.96 9.33L21.96 9.33Q21.97 8.52 21.98 7.94L21.98 7.94L21.98 7.94Q22.00 6.58 22.00 6.03L22.00 6.03L22.00 6.03Q22.02 5.20 21.76 4.73L21.76 4.73L21.76 4.73Q21.51 4.27 20.97 4.27L20.97 4.27L20.97 4.27Q20.80 4.27 20.62 4.31L20.62 4.31L20.62 4.31Q20.43 4.35 20.22 4.46L20.22 4.46L20.22 4.46Q20.49 4.27 20.78 4.07L20.78 4.07L20.78 4.07Q21.08 3.87 21.38 3.71L21.38 3.71L21.38 3.71Q21.68 3.54 21.99 3.44L21.99 3.44L21.99 3.44Q22.31 3.33 22.61 3.33L22.61 3.33L22.61 3.33Q22.89 3.33 23.08 3.43L23.08 3.43L23.08 3.43Q23.27 3.53 23.40 3.70L23.40 3.70L23.40 3.70Q23.52 3.87 23.59 4.08L23.59 4.08L23.59 4.08Q23.66 4.30 23.69 4.53L23.69 4.53L23.69 4.53Q23.72 4.76 23.73 5.00L23.73 5.00L23.73 5.00Q23.73 5.23 23.73 5.43L23.73 5.43L23.73 5.43Q23.73 5.53 23.73 5.80L23.73 5.80L23.73 5.80Q23.73 6.07 23.72 6.47L23.72 6.47L23.72 6.47Q23.71 6.88 23.70 7.40L23.70 7.40L23.70 7.40Q23.69 7.92 23.68 8.51L23.68 8.51L23.68 8.51Q23.67 9.11 23.65 9.76L23.65 9.76L23.65 9.76Q23.64 10.41 23.62 11.08L23.62 11.08L23.62 11.08Q23.95 10.69 24.40 10.35L24.40 10.35L24.40 10.35Q24.84 10.01 25.33 9.77L25.33 9.77L25.33 9.77Q25.81 9.53 26.31 9.41L26.31 9.41L26.31 9.41Q26.80 9.29 27.25 9.34L27.25 9.34L27.25 9.34Q27.55 9.39 27.88 9.52L27.88 9.52L27.88 9.52Q28.21 9.65 28.49 9.91L28.49 9.91L28.49 9.91Q28.77 10.18 28.94 10.61L28.94 10.61L28.94 10.61Q29.11 11.05 29.09 11.70L29.09 11.70L29.09 11.70Q29.07 12.46 29.03 13.10L29.03 13.10L29.03 13.10Q28.98 13.74 28.98 14.23L28.98 14.23L28.98 14.23Q28.98 14.53 29.03 14.79L29.03 14.79L29.03 14.79Q29.08 15.05 29.20 15.25L29.20 15.25L29.20 15.25Q29.31 15.44 29.52 15.56L29.52 15.56L29.52 15.56Q29.72 15.67 30.03 15.67L30.03 15.67L30.03 15.67Q30.31 15.67 30.61 15.57L30.61 15.57L30.61 15.57Q30.91 15.46 31.22 15.24L31.22 15.24L31.22 15.24Q30.72 15.69 30.31 15.99L30.31 15.99L30.31 15.99Q29.89 16.29 29.54 16.47L29.54 16.47L29.54 16.47Q29.19 16.66 28.88 16.74L28.88 16.74L28.88 16.74Q28.57 16.82 28.28 16.81L28.28 16.81L28.28 16.81Q27.99 16.80 27.79 16.70L27.79 16.70L27.79 16.70Q27.59 16.59 27.47 16.37L27.47 16.37L27.47 16.37Q27.34 16.15 27.30 15.79L27.30 15.79L27.30 15.79Q27.25 15.44 27.26 14.93L27.26 14.93L27.26 14.93Q27.28 14.48 27.31 13.94L27.31 13.94L27.31 13.94Q27.34 13.39 27.34 12.86L27.34 12.86L27.34 12.86Q27.34 12.25 27.27 11.81L27.27 11.81L27.27 11.81Q27.19 11.38 26.97 11.09L26.97 11.09L26.97 11.09Q26.76 10.81 26.38 10.67L26.38 10.67L26.38 10.67Q26.00 10.53 25.40 10.53L25.40 10.53L25.40 10.53Q25.09 10.53 24.83 10.59L24.83 10.59L24.83 10.59Q24.57 10.64 24.42 10.75L24.42 10.75L24.42 10.75Q24.29 10.83 24.15 11.15L24.15 11.15L24.15 11.15Q24.01 11.47 23.87 12.08L23.87 12.08L23.87 12.08Q23.73 12.68 23.63 13.59L23.63 13.59L23.63 13.59Q23.52 14.51 23.47 15.78ZM34.33 3.77L34.33 3.77L34.33 3.77Q34.33 3.97 34.34 4.15L34.34 4.15L34.34 4.15Q34.34 4.33 34.34 4.50L34.34 4.50L34.34 4.50Q34.34 4.91 34.28 5.20L34.28 5.20L34.28 5.20Q34.21 5.48 33.95 5.65L33.95 5.65L33.95 5.65Q33.80 5.76 33.58 5.91L33.58 5.91L33.58 5.91Q33.20 6.15 32.37 6.66L32.37 6.66L32.37 6.66Q32.45 6.44 32.49 6.13L32.49 6.13L32.49 6.13Q32.53 5.82 32.54 5.54L32.54 5.54L32.54 5.54Q32.55 5.21 32.54 4.85L32.54 4.85L32.54 4.85Q32.97 4.63 33.30 4.43L33.30 4.43L33.30 4.43Q33.63 4.24 33.86 4.09L33.86 4.09L33.86 4.09Q34.13 3.92 34.33 3.77ZM36.74 15.42L36.74 15.42L36.74 15.42Q35.96 15.93 35.41 16.23L35.41 16.23L35.41 16.23Q34.87 16.52 34.48 16.67L34.48 16.67L34.48 16.67Q34.09 16.81 33.82 16.83L33.82 16.83L33.82 16.83Q33.56 16.85 33.34 16.81L33.34 16.81L33.34 16.81Q33.14 16.78 32.95 16.71L32.95 16.71L32.95 16.71Q32.76 16.64 32.60 16.46L32.60 16.46L32.60 16.46Q32.45 16.28 32.35 15.93L32.35 15.93L32.35 15.93Q32.26 15.59 32.26 15.00L32.26 15.00L32.26 15.00Q32.26 14.51 32.29 14.03L32.29 14.03L32.29 14.03Q32.31 13.55 32.34 13.07L32.34 13.07L32.34 13.07Q32.38 12.60 32.39 12.13L32.39 12.13L32.39 12.13Q32.41 11.66 32.40 11.20L32.40 11.20L32.40 11.20Q32.38 10.75 32.23 10.54L32.23 10.54L32.23 10.54Q32.08 10.33 31.78 10.33L31.78 10.33L31.78 10.33Q31.66 10.33 31.53 10.36L31.53 10.36L31.53 10.36Q31.39 10.38 31.23 10.44L31.23 10.44L31.23 10.44Q31.48 10.27 31.74 10.09L31.74 10.09L31.74 10.09Q32.00 9.92 32.27 9.78L32.27 9.78L32.27 9.78Q32.53 9.65 32.80 9.56L32.80 9.56L32.80 9.56Q33.07 9.47 33.34 9.47L33.34 9.47L33.34 9.47Q33.63 9.47 33.84 9.60L33.84 9.60L33.84 9.60Q34.06 9.73 34.12 10.04L34.12 10.04L34.12 10.04Q34.14 10.15 34.15 10.38L34.15 10.38L34.15 10.38Q34.16 10.60 34.16 10.90L34.16 10.90L34.16 10.90Q34.16 11.35 34.14 11.89L34.14 11.89L34.14 11.89Q34.13 12.43 34.10 12.95L34.10 12.95L34.10 12.95Q34.08 13.47 34.06 13.91L34.06 13.91L34.06 13.91Q34.04 14.36 34.04 14.59L34.04 14.59L34.04 14.59Q34.03 14.82 34.12 15.05L34.12 15.05L34.12 15.05Q34.21 15.27 34.38 15.45L34.38 15.45L34.38 15.45Q34.56 15.63 34.81 15.75L34.81 15.75L34.81 15.75Q35.07 15.86 35.40 15.86L35.40 15.86L35.40 15.86Q35.68 15.86 36.02 15.76L36.02 15.76L36.02 15.76Q36.35 15.65 36.74 15.42ZM39.43 3.77L39.43 3.77L39.43 3.77Q39.43 3.99 39.44 4.18L39.44 4.18L39.44 4.18Q39.44 4.38 39.44 4.56L39.44 4.56L39.44 4.56Q39.44 4.94 39.37 5.22L39.37 5.22L39.37 5.22Q39.30 5.50 39.05 5.65L39.05 5.65L39.05 5.65Q38.90 5.76 38.67 5.91L38.67 5.91L38.67 5.91Q38.47 6.04 38.18 6.22L38.18 6.22L38.18 6.22Q37.88 6.41 37.47 6.66L37.47 6.66L37.47 6.66Q37.55 6.44 37.59 6.13L37.59 6.13L37.59 6.13Q37.63 5.82 37.64 5.54L37.64 5.54L37.64 5.54Q37.65 5.21 37.64 4.85L37.64 4.85L37.64 4.85Q38.06 4.63 38.39 4.43L38.39 4.43L38.39 4.43Q38.73 4.24 38.96 4.09L38.96 4.09L38.96 4.09Q39.23 3.92 39.43 3.77ZM39.22 10.04L39.22 10.04L39.22 10.04Q39.25 10.16 39.26 10.57L39.26 10.57L39.26 10.57Q39.27 10.98 39.27 11.57L39.27 11.57L39.27 11.57Q39.27 12.09 39.27 12.69L39.27 12.69L39.27 12.69Q39.26 13.30 39.25 13.93L39.25 13.93L39.25 13.93Q39.24 14.55 39.22 15.16L39.22 15.16L39.22 15.16Q39.21 15.76 39.20 16.27L39.20 16.27L39.20 16.27Q39.18 16.78 39.17 17.14L39.17 17.14L39.17 17.14Q39.16 17.51 39.16 17.66L39.16 17.66L39.16 17.66Q39.14 18.43 38.57 19.26L38.57 19.26L38.57 19.26Q37.99 20.09 36.81 20.92L36.81 20.92L36.81 20.92Q36.33 21.27 35.86 21.50L35.86 21.50L35.86 21.50Q35.40 21.74 34.97 21.88L34.97 21.88L34.97 21.88Q34.55 22.03 34.17 22.09L34.17 22.09L34.17 22.09Q33.79 22.16 33.48 22.16L33.48 22.16L33.48 22.16Q33.29 22.16 33.04 22.11L33.04 22.11L33.04 22.11Q32.80 22.07 32.55 21.98L32.55 21.98L32.55 21.98Q32.30 21.90 32.07 21.79L32.07 21.79L32.07 21.79Q31.83 21.68 31.69 21.55L31.69 21.55L31.69 21.55Q31.54 21.42 31.51 21.28L31.51 21.28L31.51 21.28Q31.47 21.14 31.60 21.01L31.60 21.01L31.60 21.01Q31.74 20.88 31.98 20.70L31.98 20.70L31.98 20.70Q32.18 20.54 32.53 20.30L32.53 20.30L32.53 20.30Q32.87 20.06 33.38 19.71L33.38 19.71L33.38 19.71Q33.28 19.80 33.25 19.90L33.25 19.90L33.25 19.90Q33.21 19.99 33.21 20.07L33.21 20.07L33.21 20.07Q33.21 20.25 33.35 20.39L33.35 20.39L33.35 20.39Q33.50 20.52 33.72 20.61L33.72 20.61L33.72 20.61Q33.94 20.71 34.21 20.76L34.21 20.76L34.21 20.76Q34.49 20.82 34.75 20.86L34.75 20.86L34.75 20.86Q35.01 20.89 35.22 20.90L35.22 20.90L35.22 20.90Q35.43 20.91 35.53 20.91L35.53 20.91L35.53 20.91Q35.96 20.91 36.27 20.77L36.27 20.77L36.27 20.77Q36.58 20.64 36.79 20.41L36.79 20.41L36.79 20.41Q37.00 20.17 37.12 19.87L37.12 19.87L37.12 19.87Q37.25 19.56 37.32 19.22L37.32 19.22L37.32 19.22Q37.39 18.87 37.41 18.52L37.41 18.52L37.41 18.52Q37.43 18.16 37.44 17.83L37.44 17.83L37.44 17.83Q37.44 17.74 37.45 17.39L37.45 17.39L37.45 17.39Q37.45 17.04 37.46 16.52L37.46 16.52L37.46 16.52Q37.47 16.01 37.47 15.39L37.47 15.39L37.47 15.39Q37.48 14.77 37.48 14.14L37.48 14.14L37.48 14.14Q37.49 13.51 37.49 12.93L37.49 12.93L37.49 12.93Q37.50 12.35 37.50 11.92L37.50 11.92L37.50 11.92Q37.50 11.07 37.37 10.70L37.37 10.70L37.37 10.70Q37.24 10.33 36.88 10.33L36.88 10.33L36.88 10.33Q36.76 10.33 36.63 10.36L36.63 10.36L36.63 10.36Q36.49 10.38 36.33 10.44L36.33 10.44L36.33 10.44Q36.57 10.27 36.82 10.10L36.82 10.10L36.82 10.10Q37.07 9.93 37.34 9.79L37.34 9.79L37.34 9.79Q37.60 9.65 37.88 9.56L37.88 9.56L37.88 9.56Q38.15 9.47 38.43 9.47L38.43 9.47L38.43 9.47Q38.72 9.47 38.94 9.60L38.94 9.60L38.94 9.60Q39.16 9.73 39.22 10.04ZM43.98 3.77L43.98 3.77L43.98 3.77Q43.98 3.97 43.98 4.15L43.98 4.15L43.98 4.15Q43.99 4.33 43.99 4.50L43.99 4.50L43.99 4.50Q43.99 4.91 43.92 5.20L43.92 5.20L43.92 5.20Q43.85 5.48 43.60 5.65L43.60 5.65L43.60 5.65Q43.45 5.76 43.22 5.91L43.22 5.91L43.22 5.91Q42.85 6.15 42.01 6.66L42.01 6.66L42.01 6.66Q42.10 6.44 42.13 6.13L42.13 6.13L42.13 6.13Q42.17 5.82 42.18 5.54L42.18 5.54L42.18 5.54Q42.20 5.21 42.18 4.85L42.18 4.85L42.18 4.85Q42.62 4.63 42.94 4.43L42.94 4.43L42.94 4.43Q43.27 4.24 43.50 4.09L43.50 4.09L43.50 4.09Q43.78 3.92 43.98 3.77ZM46.38 15.42L46.38 15.42L46.38 15.42Q45.60 15.93 45.06 16.23L45.06 16.23L45.06 16.23Q44.52 16.52 44.13 16.67L44.13 16.67L44.13 16.67Q43.74 16.81 43.47 16.83L43.47 16.83L43.47 16.83Q43.20 16.85 42.98 16.81L42.98 16.81L42.98 16.81Q42.79 16.78 42.59 16.71L42.59 16.71L42.59 16.71Q42.40 16.64 42.25 16.46L42.25 16.46L42.25 16.46Q42.10 16.28 42 15.93L42 15.93L42 15.93Q41.90 15.59 41.90 15.00L41.90 15.00L41.90 15.00Q41.90 14.51 41.93 14.03L41.93 14.03L41.93 14.03Q41.96 13.55 41.99 13.07L41.99 13.07L41.99 13.07Q42.02 12.60 42.04 12.13L42.04 12.13L42.04 12.13Q42.05 11.66 42.04 11.20L42.04 11.20L42.04 11.20Q42.03 10.75 41.88 10.54L41.88 10.54L41.88 10.54Q41.73 10.33 41.43 10.33L41.43 10.33L41.43 10.33Q41.31 10.33 41.17 10.36L41.17 10.36L41.17 10.36Q41.04 10.38 40.88 10.44L40.88 10.44L40.88 10.44Q41.13 10.27 41.38 10.09L41.38 10.09L41.38 10.09Q41.64 9.92 41.91 9.78L41.91 9.78L41.91 9.78Q42.18 9.65 42.45 9.56L42.45 9.56L42.45 9.56Q42.72 9.47 42.98 9.47L42.98 9.47L42.98 9.47Q43.27 9.47 43.49 9.60L43.49 9.60L43.49 9.60Q43.70 9.73 43.76 10.04L43.76 10.04L43.76 10.04Q43.78 10.15 43.79 10.38L43.79 10.38L43.79 10.38Q43.80 10.60 43.80 10.90L43.80 10.90L43.80 10.90Q43.80 11.35 43.79 11.89L43.79 11.89L43.79 11.89Q43.77 12.43 43.75 12.95L43.75 12.95L43.75 12.95Q43.73 13.47 43.71 13.91L43.71 13.91L43.71 13.91Q43.69 14.36 43.68 14.59L43.68 14.59L43.68 14.59Q43.67 14.82 43.76 15.05L43.76 15.05L43.76 15.05Q43.85 15.27 44.03 15.45L44.03 15.45L44.03 15.45Q44.20 15.63 44.46 15.75L44.46 15.75L44.46 15.75Q44.71 15.86 45.04 15.86L45.04 15.86L45.04 15.86Q45.33 15.86 45.66 15.76L45.66 15.76L45.66 15.76Q46.00 15.65 46.38 15.42ZM52.91 14.98L52.91 14.98L52.91 14.98Q52.38 15.41 51.86 15.75L51.86 15.75L51.86 15.75Q51.34 16.09 50.85 16.32L50.85 16.32L50.85 16.32Q50.36 16.56 49.91 16.67L49.91 16.67L49.91 16.67Q49.46 16.78 49.08 16.75L49.08 16.75L49.08 16.75Q48.68 16.73 48.35 16.56L48.35 16.56L48.35 16.56Q48.02 16.40 47.78 16.07L47.78 16.07L47.78 16.07Q47.54 15.74 47.41 15.23L47.41 15.23L47.41 15.23Q47.28 14.72 47.30 13.99L47.30 13.99L47.30 13.99Q47.30 13.60 47.33 13.07L47.33 13.07L47.33 13.07Q47.34 12.61 47.35 11.94L47.35 11.94L47.35 11.94Q47.37 11.26 47.38 10.36L47.38 10.36L47.38 10.36Q47.24 10.37 47.03 10.39L47.03 10.39L47.03 10.39Q46.82 10.41 46.58 10.46L46.58 10.46L46.58 10.46Q46.33 10.51 46.07 10.60L46.07 10.60L46.07 10.60Q45.81 10.68 45.56 10.81L45.56 10.81L45.56 10.81Q45.77 10.68 45.98 10.55L45.98 10.55L45.98 10.55Q46.18 10.41 46.35 10.29L46.35 10.29L46.35 10.29Q46.55 10.17 46.74 10.04L46.74 10.04L46.74 10.04Q46.92 9.94 47.07 9.69L47.07 9.69L47.07 9.69Q47.19 9.47 47.29 9.06L47.29 9.06L47.29 9.06Q47.39 8.66 47.39 7.98L47.39 7.98L47.39 7.98Q47.87 7.74 48.20 7.54L48.20 7.54L48.20 7.54Q48.53 7.34 48.73 7.21L48.73 7.21L48.73 7.21Q48.97 7.04 49.12 6.92L49.12 6.92L49.09 9.22L49.09 9.22Q49.27 9.23 49.44 9.23L49.44 9.23L49.44 9.23Q49.61 9.24 49.74 9.24L49.74 9.24L50.03 9.24L50.03 9.24Q50.61 9.25 51.14 9.22L51.14 9.22L51.14 9.22Q51.37 9.21 51.60 9.19L51.60 9.19L51.60 9.19Q51.84 9.17 52.06 9.14L52.06 9.14L52.06 9.14Q52.27 9.11 52.46 9.06L52.46 9.06L52.46 9.06Q52.65 9.02 52.78 8.96L52.78 8.96L52.78 8.96Q52.41 9.32 51.97 9.58L51.97 9.58L51.97 9.58Q51.53 9.83 51.05 9.99L51.05 9.99L51.05 9.99Q50.57 10.15 50.07 10.23L50.07 10.23L50.07 10.23Q49.57 10.32 49.08 10.34L49.08 10.34L49.08 10.34Q49.06 11.32 49.05 12.26L49.05 12.26L49.05 12.26Q49.05 13.21 49.05 14.12L49.05 14.12L49.05 14.12Q49.05 14.42 49.20 14.69L49.20 14.69L49.20 14.69Q49.34 14.96 49.60 15.16L49.60 15.16L49.60 15.16Q49.85 15.35 50.20 15.47L50.20 15.47L50.20 15.47Q50.55 15.59 50.98 15.59L50.98 15.59L50.98 15.59Q51.41 15.59 51.90 15.45L51.90 15.45L51.90 15.45Q52.40 15.31 52.91 14.98ZM62.23 15.76L62.23 15.76L62.23 15.76Q61.96 15.98 61.62 16.23L61.62 16.23L61.62 16.23Q61.27 16.47 60.88 16.67L60.88 16.67L60.88 16.67Q60.49 16.87 60.06 17.00L60.06 17.00L60.06 17.00Q59.64 17.13 59.20 17.13L59.20 17.13L59.20 17.13Q59.07 17.13 58.94 17.10L58.94 17.10L58.94 17.10Q58.81 17.06 58.71 16.98L58.71 16.98L58.71 16.98Q58.60 16.89 58.54 16.75L58.54 16.75L58.54 16.75Q58.47 16.60 58.48 16.39L58.48 16.39L58.48 16.39Q58.48 16.13 58.51 15.11L58.51 15.11L58.51 15.11Q58.52 14.68 58.53 14.04L58.53 14.04L58.53 14.04Q58.55 13.40 58.57 12.49L58.57 12.49L58.57 12.49Q58.60 11.58 58.63 10.37L58.63 10.37L58.63 10.37Q58.67 9.17 58.71 7.61L58.71 7.61L58.71 7.61Q58.53 7.63 58.36 7.63L58.36 7.63L58.36 7.63Q58.19 7.64 58.01 7.64L58.01 7.64L58.01 7.64Q57.75 7.64 57.43 7.62L57.43 7.62L57.43 7.62Q57.10 7.61 56.75 7.57L56.75 7.57L58.48 6.47L58.48 6.47Q59.01 6.55 59.49 6.58L59.49 6.58L59.49 6.58Q59.96 6.60 60.27 6.60L60.27 6.60L60.27 6.60Q60.61 6.60 60.93 6.58L60.93 6.58L60.93 6.58Q61.24 6.56 61.55 6.52L61.55 6.52L61.55 6.52Q61.86 6.49 62.16 6.47L62.16 6.47L62.16 6.47Q62.46 6.45 62.77 6.45L62.77 6.45L62.77 6.45Q63.37 6.45 63.92 6.58L63.92 6.58L63.92 6.58Q64.48 6.72 64.89 7.01L64.89 7.01L64.89 7.01Q65.31 7.30 65.56 7.77L65.56 7.77L65.56 7.77Q65.81 8.23 65.81 8.89L65.81 8.89L65.81 8.89Q65.81 9.24 65.69 9.60L65.69 9.60L65.69 9.60Q65.58 9.97 65.31 10.33L65.31 10.33L65.31 10.33Q65.04 10.70 64.60 11.06L64.60 11.06L64.60 11.06Q64.16 11.42 63.51 11.74L63.51 11.74L63.51 11.74Q64.19 12.37 64.75 12.87L64.75 12.87L64.75 12.87Q65.30 13.37 65.75 13.76L65.75 13.76L65.75 13.76Q66.21 14.15 66.55 14.43L66.55 14.43L66.55 14.43Q66.90 14.72 67.17 14.92L67.17 14.92L67.17 14.92Q67.79 15.40 68.12 15.58L68.12 15.58L68.12 15.58Q68.29 15.66 68.48 15.72L68.48 15.72L68.48 15.72Q68.65 15.78 68.85 15.82L68.85 15.82L68.85 15.82Q69.06 15.86 69.30 15.86L69.30 15.86L69.30 15.86Q69.44 15.86 69.58 15.84L69.58 15.84L69.58 15.84Q69.71 15.81 69.85 15.76L69.85 15.76L69.85 15.76Q69.52 16.01 69.21 16.24L69.21 16.24L69.21 16.24Q68.89 16.46 68.57 16.63L68.57 16.63L68.57 16.63Q68.26 16.80 67.93 16.90L67.93 16.90L67.93 16.90Q67.61 16.99 67.27 16.99L67.27 16.99L67.27 16.99Q67.07 16.99 66.90 16.96L66.90 16.96L66.90 16.96Q66.72 16.92 66.53 16.84L66.53 16.84L66.53 16.84Q66.35 16.75 66.16 16.63L66.16 16.63L66.16 16.63Q65.97 16.50 65.76 16.30L65.76 16.30L65.76 16.30Q65.48 16.07 64.93 15.59L64.93 15.59L64.93 15.59Q64.70 15.38 64.39 15.09L64.39 15.09L64.39 15.09Q64.07 14.81 63.66 14.43L63.66 14.43L63.66 14.43Q63.25 14.05 62.74 13.58L62.74 13.58L62.74 13.58Q62.22 13.10 61.59 12.51L61.59 12.51L61.59 12.51Q62.08 12.33 62.52 12.07L62.52 12.07L62.52 12.07Q62.96 11.81 63.28 11.47L63.28 11.47L63.28 11.47Q63.61 11.14 63.80 10.72L63.80 10.72L63.80 10.72Q63.98 10.31 63.98 9.81L63.98 9.81L63.98 9.81Q63.98 9.21 63.74 8.76L63.74 8.76L63.74 8.76Q63.49 8.31 63.10 8.00L63.10 8.00L63.10 8.00Q62.71 7.70 62.21 7.55L62.21 7.55L62.21 7.55Q61.71 7.40 61.20 7.40L61.20 7.40L61.20 7.40Q60.79 7.40 60.42 7.44L60.42 7.44L60.15 15.76L60.15 15.76Q60.31 15.87 60.53 15.92L60.53 15.92L60.53 15.92Q60.74 15.97 60.98 15.97L60.98 15.97L60.98 15.97Q61.21 15.97 61.43 15.94L61.43 15.94L61.43 15.94Q61.66 15.91 61.84 15.87L61.84 15.87L61.84 15.87Q62.05 15.82 62.23 15.76ZM78.95 15.49L78.95 15.49L78.95 15.49Q78.66 15.78 78.33 16.01L78.33 16.01L78.33 16.01Q78.00 16.25 77.66 16.42L77.66 16.42L77.66 16.42Q77.33 16.59 77.01 16.69L77.01 16.69L77.01 16.69Q76.70 16.80 76.44 16.81L76.44 16.81L76.44 16.81Q76.30 16.82 76.07 16.81L76.07 16.81L76.07 16.81Q75.84 16.79 75.64 16.69L75.64 16.69L75.64 16.69Q75.43 16.58 75.28 16.37L75.28 16.37L75.28 16.37Q75.13 16.15 75.13 15.74L75.13 15.74L75.13 14.93L75.13 14.93Q74.75 15.30 74.33 15.64L74.33 15.64L74.33 15.64Q73.92 15.98 73.48 16.24L73.48 16.24L73.48 16.24Q73.04 16.50 72.58 16.66L72.58 16.66L72.58 16.66Q72.13 16.81 71.70 16.81L71.70 16.81L71.70 16.81Q71.13 16.81 70.71 16.56L70.71 16.56L70.71 16.56Q70.29 16.31 70 15.91L70 15.91L70 15.91Q69.71 15.52 69.57 15.03L69.57 15.03L69.57 15.03Q69.43 14.53 69.43 14.05L69.43 14.05L69.43 14.05Q69.43 13.69 69.48 13.33L69.48 13.33L69.48 13.33Q69.54 12.98 69.62 12.67L69.62 12.67L69.62 12.67Q69.71 12.35 69.82 12.10L69.82 12.10L69.82 12.10Q69.93 11.85 70.05 11.68L70.05 11.68L70.05 11.68Q70.28 11.38 70.63 11.09L70.63 11.09L70.63 11.09Q70.98 10.80 71.39 10.55L71.39 10.55L71.39 10.55Q71.80 10.29 72.27 10.09L72.27 10.09L72.27 10.09Q72.73 9.88 73.20 9.73L73.20 9.73L73.20 9.73Q73.66 9.58 74.09 9.50L74.09 9.50L74.09 9.50Q74.53 9.42 74.90 9.42L74.90 9.42L74.90 9.42Q75.28 9.42 75.80 9.46L75.80 9.46L75.80 9.46Q76.32 9.50 76.99 9.61L76.99 9.61L76.99 9.61Q76.96 10.40 76.94 11.00L76.94 11.00L76.94 11.00Q76.92 11.60 76.90 12.08L76.90 12.08L76.90 12.08Q76.89 12.55 76.88 12.94L76.88 12.94L76.88 12.94Q76.88 13.33 76.88 13.70L76.88 13.70L76.88 13.70Q76.88 14.08 76.86 14.44L76.86 14.44L76.86 14.44Q76.85 14.80 76.92 15.09L76.92 15.09L76.92 15.09Q76.99 15.37 77.19 15.55L77.19 15.55L77.19 15.55Q77.39 15.73 77.81 15.73L77.81 15.73L77.81 15.73Q78.07 15.73 78.35 15.66L78.35 15.66L78.35 15.66Q78.64 15.60 78.95 15.49ZM75.14 10.60L75.14 10.60L75.14 10.60Q74.73 10.49 74.27 10.44L74.27 10.44L74.27 10.44Q73.80 10.40 73.38 10.40L73.38 10.40L73.38 10.40Q73.14 10.40 72.94 10.41L72.94 10.41L72.94 10.41Q72.73 10.42 72.56 10.45L72.56 10.45L72.56 10.45Q72.39 10.47 72.26 10.50L72.26 10.50L72.26 10.50Q72.13 10.53 72.06 10.57L72.06 10.57L72.06 10.57Q71.93 10.63 71.77 10.87L71.77 10.87L71.77 10.87Q71.61 11.10 71.46 11.45L71.46 11.45L71.46 11.45Q71.31 11.80 71.20 12.24L71.20 12.24L71.20 12.24Q71.09 12.67 71.09 13.14L71.09 13.14L71.09 13.14Q71.09 13.58 71.22 14.03L71.22 14.03L71.22 14.03Q71.35 14.48 71.60 14.83L71.60 14.83L71.60 14.83Q71.85 15.19 72.22 15.41L72.22 15.41L72.22 15.41Q72.58 15.63 73.06 15.63L73.06 15.63L73.06 15.63Q73.50 15.63 73.84 15.49L73.84 15.49L73.84 15.49Q74.18 15.35 74.44 15.10L74.44 15.10L74.44 15.10Q74.69 14.85 74.86 14.51L74.86 14.51L74.86 14.51Q75.02 14.18 75.13 13.79L75.13 13.79L75.13 13.79Q75.13 13.50 75.13 13.18L75.13 13.18L75.13 13.18Q75.13 12.85 75.13 12.46L75.13 12.46L75.13 12.46Q75.13 12.07 75.13 11.61L75.13 11.61L75.13 11.61Q75.13 11.15 75.14 10.60ZM87.75 12.56L87.75 12.56L87.75 12.56Q87.75 13.13 87.60 13.60L87.60 13.60L87.60 13.60Q87.44 14.06 87.22 14.41L87.22 14.41L87.22 14.41Q87.00 14.76 86.78 14.99L86.78 14.99L86.78 14.99Q86.55 15.22 86.41 15.33L86.41 15.33L86.41 15.33Q86.02 15.61 85.60 15.89L85.60 15.89L85.60 15.89Q85.18 16.16 84.74 16.38L84.74 16.38L84.74 16.38Q84.30 16.59 83.84 16.72L83.84 16.72L83.84 16.72Q83.37 16.85 82.88 16.85L82.88 16.85L82.88 16.85Q82.15 16.85 81.49 16.67L81.49 16.67L81.49 16.67Q80.84 16.48 80.35 16.11L80.35 16.11L80.35 16.11Q79.86 15.74 79.58 15.18L79.58 15.18L79.58 15.18Q79.30 14.62 79.30 13.87L79.30 13.87L79.30 13.87Q79.30 13.21 79.53 12.62L79.53 12.62L79.53 12.62Q79.75 12.04 80.14 11.55L80.14 11.55L80.14 11.55Q80.53 11.05 81.05 10.66L81.05 10.66L81.05 10.66Q81.57 10.27 82.15 9.99L82.15 9.99L82.15 9.99Q82.73 9.72 83.34 9.58L83.34 9.58L83.34 9.58Q83.96 9.43 84.53 9.43L84.53 9.43L84.53 9.43Q85.24 9.43 85.84 9.67L85.84 9.67L85.84 9.67Q86.43 9.91 86.85 10.33L86.85 10.33L86.85 10.33Q87.28 10.75 87.52 11.32L87.52 11.32L87.52 11.32Q87.75 11.89 87.75 12.56ZM83.04 10.23L83.04 10.23L83.04 10.23Q82.69 10.23 82.40 10.35L82.40 10.35L82.40 10.35Q82.11 10.48 81.89 10.69L81.89 10.69L81.89 10.69Q81.67 10.91 81.51 11.19L81.51 11.19L81.51 11.19Q81.35 11.48 81.24 11.79L81.24 11.79L81.24 11.79Q81.14 12.10 81.08 12.42L81.08 12.42L81.08 12.42Q81.03 12.74 81.03 13.02L81.03 13.02L81.03 13.02Q81.03 13.65 81.27 14.20L81.27 14.20L81.27 14.20Q81.50 14.75 81.90 15.16L81.90 15.16L81.90 15.16Q82.31 15.57 82.85 15.80L82.85 15.80L82.85 15.80Q83.40 16.04 84.01 16.04L84.01 16.04L84.01 16.04Q84.40 16.04 84.76 15.89L84.76 15.89L84.76 15.89Q85.11 15.74 85.39 15.43L85.39 15.43L85.39 15.43Q85.67 15.11 85.84 14.60L85.84 14.60L85.84 14.60Q86.00 14.10 86.00 13.39L86.00 13.39L86.00 13.39Q86.00 12.77 85.77 12.20L85.77 12.20L85.77 12.20Q85.54 11.62 85.13 11.18L85.13 11.18L85.13 11.18Q84.73 10.75 84.19 10.49L84.19 10.49L84.19 10.49Q83.65 10.23 83.04 10.23Z"></path>
    </g>
    <defs data-v-fde0c5aa="">
    </defs>
    <g data-v-fde0c5aa="" id="1da45ce8-65a4-493e-96b8-ecaa514161bb" stroke="none" fill="#7D3A32"
        transform="matrix(0.707606852054596,0,0,0.707606852054596,39.99999999869972,114.61222953269669)">
        <path
            d="M97.938 68.771h-6.316V20.81a2.022 2.022 0 0 0-2.021-2.021H10.399a2.022 2.022 0 0 0-2.021 2.021v47.961H2.062A2.062 2.062 0 0 0 0 70.832v2.084c0 .103.008.204.022.306.527 3.521 3.348 7.447 7.159 7.922.083.01.169.017.252.017l84.51.071h.003c4.404 0 7.604-4.197 8.041-8.085.009-.075.013-.152.013-.23v-2.084a2.062 2.062 0 0 0-2.062-2.062zM12.42 22.831h75.16V68.77H59.985c-.133 0-.262.016-.386.04H41.16a2.07 2.07 0 0 0-.396-.04H12.42V22.831zm79.528 54.276l-84.362-.071c-1.461-.261-3.024-2.16-3.434-4.143h35.086c.702 1.246 2.017 2.085 3.519 2.085H57.99c1.502 0 2.816-.839 3.52-2.085h34.35c-.322 2.033-2.006 4.214-3.912 4.214zM38.84 37.498a2.083 2.083 0 0 0-2.947 0l-8.689 8.689a2.085 2.085 0 0 0 0 2.948l8.689 8.688a2.08 2.08 0 0 0 2.948 0 2.083 2.083 0 0 0 0-2.947l-7.216-7.215 7.216-7.216a2.084 2.084 0 0 0-.001-2.947zm20.521 20.325a2.081 2.081 0 0 0 2.948 0l8.688-8.688a2.085 2.085 0 0 0 0-2.948l-8.688-8.689a2.083 2.083 0 1 0-2.947 2.947l7.215 7.216-7.215 7.215a2.083 2.083 0 0 0-.001 2.947zm-17.568 4.452a2.085 2.085 0 0 0 2.797-.932l12.506-25.011a2.083 2.083 0 0 0-.933-2.796 2.087 2.087 0 0 0-2.797.932L40.861 59.479a2.083 2.083 0 0 0 .932 2.796z"></path>
    </g>
</svg>