<svg data-v-fde0c5aa="" xmlns="http://www.w3.org/2000/svg" viewBox="0 0 300 300" class="iconLeft">
    <defs data-v-fde0c5aa="">
        <linearGradient data-v-fde0c5aa="" gradientTransform="rotate(25)"
            id="702358d4-227f-41c1-be75-de6fea7694b4" x1="0%" y1="0%" x2="100%" y2="0%">
            <stop data-v-fde0c5aa="" offset="0%" stop-color="#F00079" stop-opacity="1"></stop>
            <stop data-v-fde0c5aa="" offset="100%" stop-color="#F2A041" stop-opacity="1"></stop>
        </linearGradient>
    </defs>
    <rect data-v-fde0c5aa="" fill="url(#702358d4-227f-41c1-be75-de6fea7694b4)" x="0" y="0"
        width="300px" height="300px" class="logo-background-square"></rect>
    <defs data-v-fde0c5aa="">
    </defs>
    <g data-v-fde0c5aa="" id="5ba4c8b6-3082-4484-8713-e9830d521576" fill="#ffffff"
        transform="matrix(2.527249574661255,0,0,2.527249574661255,122.09606533510065,128.39201618988346)">
        <path
            d="M5.11 2.12L5.11 2.12Q3.82 3.21 3.73 3.83L3.73 3.83L3.73 3.83Q3.64 4.45 3.97 4.98L3.97 4.98L3.97 4.98Q3.64 5.30 3.49 5.74L3.49 5.74L2.47 8.15L1.44 8.15L0.59 9.58L0.85 9.76L1.13 9.39L2.02 9.39L2.02 9.39Q1.59 10.54 0.07 12.68L0.07 12.68L2.11 12.67L3.17 11.09L1.59 11.05L1.59 11.05Q2.34 10.75 2.82 9.39L2.82 9.39L4.41 9.39L5.28 8.39L6.63 11.70L6.63 11.70Q7.05 12.63 7.90 12.71L7.90 12.71L9.00 10.78L8.72 10.60L8.24 11.32L8.24 11.32Q7.83 11.27 7.65 10.81L7.65 10.81L4.87 3.60L4.87 3.60Q4.61 3.04 5.20 2.30L5.20 2.30L5.11 2.12ZM4.26 5.62L5.23 8.18L3.21 8.18L4.26 5.62ZM11.12 3.17L10.96 3.10L10.96 3.10Q10.12 3.63 9.70 4.24L9.70 4.24L9.70 4.24Q9.28 4.85 9.21 5.77L9.21 5.77L9.24 10.34L9.24 10.34Q9.32 11.12 9.54 11.57L9.54 11.57L9.54 11.57Q9.75 12.01 10.08 12.30L10.08 12.30L10.08 12.30Q10.41 12.60 10.93 12.73L10.93 12.73L10.93 12.73Q11.46 12.85 12.93 10.75L12.93 10.75L12.93 10.75Q13.90 9.25 13.65 8.13L13.65 8.13L13.65 8.13Q13.40 7.02 12.51 6.59L12.51 6.59L12.51 6.59Q11.63 6.15 10.53 7.79L10.53 7.79L10.55 5.04L10.55 5.04Q10.48 3.90 11.12 3.17L11.12 3.17ZM11.41 7.94L11.41 7.94L11.41 7.94Q12.00 7.98 12.30 9.03L12.30 9.03L12.30 9.03Q12.60 10.09 12.17 11.22L12.17 11.22L12.17 11.22Q11.68 11.52 11.15 11.13L11.15 11.13L11.15 11.13Q10.63 10.74 10.55 9.84L10.55 9.84L10.53 8.29L10.53 8.29Q10.81 7.90 11.41 7.94ZM14.21 5.36L14.21 5.36L14.22 8.72L14.22 11.53L14.22 11.53Q14.24 12.54 15.03 12.67L15.03 12.67L16.32 11.40L16.19 11.27L15.79 11.60L15.79 11.60Q15.52 11.48 15.54 10.58L15.54 10.58L15.54 8.01L16.05 7.59L16.05 7.59Q17.23 7.55 17.24 8.99L17.24 8.99L17.23 11.50L17.23 11.50Q17.23 12.50 18.00 12.65L18.00 12.65L19.30 11.39L19.16 11.21L18.76 11.58L18.76 11.58Q18.53 11.55 18.53 10.77L18.53 10.77L18.54 8.06L18.54 8.06Q18.52 7.14 17.95 6.75L17.95 6.75L17.95 6.75Q17.38 6.37 16.78 6.47L16.78 6.47L15.48 7.69L15.48 4.98L15.48 4.98Q15.44 3.52 15.98 3.11L15.98 3.11L15.87 2.98L15.87 2.98Q14.20 3.85 14.21 5.36ZM21.17 3.80L19.93 4.94L19.93 4.94Q20.67 5.07 20.71 6.04L20.71 6.04L21.99 5.02L21.99 5.02Q22.03 4.12 21.17 3.80L21.17 3.80ZM21.27 6.44L19.59 7.82L19.73 8.07L20.14 7.77L20.14 7.77Q20.50 7.77 20.42 8.80L20.42 8.80L20.42 11.58L20.42 11.58Q20.50 12.58 21.27 12.71L21.27 12.71L22.61 11.40L22.46 11.25L22.07 11.59L22.07 11.59Q21.70 11.57 21.75 10.53L21.75 10.53L21.74 7.64L21.74 7.64Q21.72 6.57 21.27 6.44L21.27 6.44ZM24.30 3.80L23.06 4.94L23.06 4.94Q23.80 5.07 23.91 6.04L23.91 6.04L25.12 5.02L25.12 5.02Q25.16 4.12 24.30 3.80L24.30 3.80ZM24.40 6.44L22.86 7.82L23.02 8.09L23.02 8.09Q23.69 7.49 23.69 8.80L23.69 8.80L23.69 11.58L23.69 11.58Q23.73 13.73 22.90 14.77L22.90 14.77L23.00 14.98L23.00 14.98Q24.92 13.82 24.95 11.66L24.95 11.66L24.94 7.64L24.94 7.64Q24.92 6.57 24.40 6.44L24.40 6.44ZM27.36 3.80L26.12 4.94L26.12 4.94Q26.87 5.07 26.91 6.04L26.91 6.04L28.18 5.02L28.18 5.02Q28.23 4.12 27.36 3.80L27.36 3.80ZM27.47 6.44L25.79 7.82L25.92 8.07L26.33 7.77L26.33 7.77Q26.69 7.77 26.61 8.80L26.61 8.80L26.61 11.58L26.61 11.58Q26.69 12.58 27.46 12.71L27.46 12.71L28.81 11.40L28.65 11.25L28.27 11.59L28.27 11.59Q27.89 11.57 27.94 10.53L27.94 10.53L27.93 7.64L27.93 7.64Q27.92 6.57 27.47 6.44L27.47 6.44ZM31.78 3.93L31.78 3.93Q31.52 3.99 30.89 4.59L30.89 4.59L30.89 4.59Q30.26 5.20 30.21 5.85L30.21 5.85L30.22 6.50L29.90 6.51L28.92 8.19L29.16 8.35L29.16 8.35Q29.51 7.64 30.25 7.79L30.25 7.79L30.24 11.16L30.24 11.16Q30.45 12.24 31.53 12.77L31.53 12.77L33.30 11.21L33.07 10.89L33.07 10.89Q32.06 12.09 31.51 10.71L31.51 10.71L31.51 9.11L31.51 7.71L32.59 7.71L33.54 6.71L33.48 6.51L31.42 6.51L31.42 6.38L31.42 4.98L31.42 4.98Q31.40 4.58 31.92 4.07L31.92 4.07L31.78 3.93ZM37.34 3.62L36.15 5.48L36.38 5.58L36.38 5.58Q36.60 5.10 37.08 5.05L37.08 5.05L38.60 5.05L38.60 5.05Q37.72 5.29 37.51 5.85L37.51 5.85L37.50 10.27L37.51 11.12L37.51 11.12Q37.32 11.85 36.47 12.71L36.47 12.71L36.54 12.93L36.54 12.93Q37.12 12.65 38.96 12.69L38.96 12.69L40.09 11.37L39.92 11.24L39.92 11.24Q39.59 11.48 38.04 11.42L38.04 11.42L38.04 11.42Q38.69 10.93 38.93 10.42L38.93 10.42L38.94 8.22L38.94 8.22Q39.52 8.21 39.83 8.42L39.83 8.42L39.83 8.42Q40.14 8.63 40.38 9.04L40.38 9.04L40.38 9.04Q40.61 9.46 40.83 10.06L40.83 10.06L40.83 10.06Q41.05 10.65 41.48 11.47L41.48 11.47L41.48 11.47Q41.91 12.29 42.57 12.82L42.57 12.82L44.22 11.50L44.05 11.33L44.05 11.33Q43.68 11.72 43.44 11.48L43.44 11.48L43.44 11.48Q43.03 11.05 42.79 10.50L42.79 10.50L42.79 10.50Q42.55 9.95 42.27 9.30L42.27 9.30L42.27 9.30Q42 8.66 41.55 8.23L41.55 8.23L41.55 8.23Q41.10 7.80 40.41 7.91L40.41 7.91L40.41 7.91Q41.43 7.72 41.96 6.94L41.96 6.94L41.96 6.94Q42.50 6.15 42.17 4.99L42.17 4.99L42.17 4.99Q41.84 3.84 40.69 3.68L40.69 3.68L39.96 3.62L37.34 3.62ZM38.92 5.04L38.92 5.04Q39.89 4.96 40.37 5.26L40.37 5.26L40.37 5.26Q40.85 5.56 40.93 6.23L40.93 6.23L40.93 6.23Q41.00 6.91 40.70 7.33L40.70 7.33L40.70 7.33Q40.40 7.75 38.92 7.74L38.92 7.74L38.92 5.04ZM46.42 6.52L46.42 6.52Q45.59 7.02 44.83 8.07L44.83 8.07L44.83 8.07Q44.07 9.11 44.02 9.85L44.02 9.85L44.02 9.85Q43.96 10.59 44.74 11.61L44.74 11.61L44.74 11.61Q45.52 12.63 45.94 12.68L45.94 12.68L45.94 12.68Q46.72 12.04 47.20 11.63L47.20 11.63L47.20 11.63Q47.38 12.37 48.27 12.73L48.27 12.73L49.62 11.09L49.39 10.94L49.10 11.26L49.10 11.26Q48.75 11.42 48.53 11.14L48.53 11.14L48.53 11.14Q48.31 10.87 48.33 10.47L48.33 10.47L48.33 7.18L48.33 7.18Q48.35 6.68 48.70 6.51L48.70 6.51L46.42 6.52ZM45.62 7.60L47.28 7.60L47.04 8.07L47.04 8.32L47.04 11.25L47.04 11.25Q46.44 11.72 45.57 10.45L45.57 10.45L45.57 10.45Q44.69 9.17 45.62 7.60L45.62 7.60ZM51.77 6.60L51.77 6.60L51.77 6.60Q51.42 6.77 50.65 7.54L50.65 7.54L50.65 7.54Q49.89 8.31 49.75 9.52L49.75 9.52L49.75 9.52Q49.61 10.73 50.43 11.70L50.43 11.70L50.43 11.70Q51.26 12.67 51.87 12.75L51.87 12.75L51.87 12.75Q52.49 12.82 52.96 12.39L52.96 12.39L52.96 12.39Q53.44 11.96 54.05 10.90L54.05 10.90L54.05 10.90Q54.66 9.84 54.55 8.90L54.55 8.90L54.55 8.90Q54.44 7.96 53.78 7.30L53.78 7.30L53.78 7.30Q53.12 6.65 52.62 6.54L52.62 6.54L52.62 6.54Q52.12 6.43 51.77 6.60ZM51.43 7.67L51.43 7.67L51.43 7.67Q52.09 7.57 52.80 8.30L52.80 8.30L52.80 8.30Q53.50 9.03 53.59 9.85L53.59 9.85L53.59 9.85Q53.68 10.67 53.34 11.09L53.34 11.09L53.34 11.09Q53.01 11.50 52.34 11.43L52.34 11.43L52.34 11.43Q51.67 11.35 51.12 10.31L51.12 10.31L51.12 10.31Q50.57 9.27 50.67 8.52L50.67 8.52L50.67 8.52Q50.78 7.78 51.43 7.67Z"></path>
    </g>
    <defs data-v-fde0c5aa="">
    </defs>
    <g data-v-fde0c5aa="" id="06da270d-e544-4490-bd26-6c7896da4596" stroke="none" fill="#ffffff"
        transform="matrix(0.7972122430801392,0,0,0.7972122430801392,35.17447871991065,111.48302941287068)">
        <path
            d="M11.146 45.898l21.073-14.072a2 2 0 1 0-2.222-3.326L8.924 42.572a6.444 6.444 0 0 0-2.871 5.37 6.444 6.444 0 0 0 2.871 5.37l21.073 14.072a1.997 1.997 0 0 0 2.774-.552 2 2 0 0 0-.552-2.774L11.146 49.985a2.422 2.422 0 0 1-1.093-2.044c0-.835.399-1.579 1.093-2.043zM90.076 42.572L69.002 28.5a2 2 0 0 0-2.222 3.326l21.073 14.072a2.422 2.422 0 0 1 1.093 2.043 2.42 2.42 0 0 1-1.093 2.044L66.781 64.058a2 2 0 1 0 2.222 3.326l21.073-14.072a6.444 6.444 0 0 0 2.871-5.37 6.444 6.444 0 0 0-2.871-5.37zM59.221 17.834a2 2 0 0 0-2.513 1.297l-18.227 57.11a2 2 0 1 0 3.81 1.215l18.227-57.109a2 2 0 0 0-1.297-2.513z"></path>
    </g>
</svg>