<svg data-v-70b83f88="" version="1.0" xmlns="http://www.w3.org/2000/svg"
    xmlns:xlink="http://www.w3.org/1999/xlink" width="100%" height="100%"
    viewBox="0 0 340.000000 250.000000" preserveAspectRatio="xMidYMid meet"
    color-interpolation-filters="sRGB" style="margin: auto;">
    <rect data-v-70b83f88="" x="0" y="0" width="100%" height="100%" fill="#feffff" fill-opacity="1"
        class="background"></rect>
    <g data-v-70b83f88="" fill="#333" class="iconlettersvg-g iconlettersvg"
        transform="translate(112.54048538208008,100.00428729318082)">
        <g>
            <g class="tp-name">
                <g transform="scale(1)">
                    <g transform="translate(0, 0)">
                        <g class="name-imagesvg">
                            <g>
                                <rect fill="#333" fill-opacity="0" stroke-width="2" x="0" y="0"
                                    width="62.13786371508071" height="50" class="image-rect"></rect>
                                <svg x="0" y="0" width="62.13786371508071" height="50"
                                    filtersec="colorsb5756814086" class="image-svg-svg primary"
                                    style="overflow: visible;">
                                    <svg xmlns="http://www.w3.org/2000/svg"
                                        viewBox="0 0 34.83 28.02">
                                        <path fill="#e94337"
                                            d="M6.81 10.6L17.418-.008l17.416 17.416-10.606 10.606z"></path>
                                        <path fill="#e94337"
                                            d="M17.418-.002l10.607 10.607L10.609 28.02.002 17.414z"></path>
                                        <path fill="#fff" opacity=".2"
                                            d="M6.814 10.605L17.42-.002l10.607 10.607L17.42 21.21z"></path>
                                    </svg>
                                </svg>
                            </g>
                        </g>
                    </g>
                    <g transform="translate(62.13786371508071, 0)">
                        <g class="name-imagesvg">
                            <g>
                                <rect fill="#333" fill-opacity="0" stroke-width="2" x="0" y="0"
                                    width="52.78116685599471" height="50" class="image-rect"></rect>
                                <svg x="0" y="0" width="52.78116685599471" height="50"
                                    filtersec="colorsb1877884613" class="image-svg-svg primary"
                                    style="overflow: visible;">
                                    <svg xmlns="http://www.w3.org/2000/svg"
                                        viewBox="0 0 26.03 24.63">
                                        <title>资源 6</title>
                                        <path
                                            d="M26 24a10.21 10.21 0 0 0-2.66-6.88A10.25 10.25 0 0 0 15.76 0H0v24.63h26V24z"
                                            fill="#20a1d2"></path>
                                        <path
                                            d="M8.14 17.14A10.25 10.25 0 0 0 5.49 24v.61h10.27V13.75a10.23 10.23 0 0 0-7.62 3.39z"
                                            fill="#fff" opacity=".3"></path>
                                        <path
                                            d="M15.76 13.75V0a10.27 10.27 0 1 0 7.66 17.14 10.23 10.23 0 0 0-7.66-3.39z"
                                            fill="#fff" opacity=".3"></path>
                                    </svg>
                                </svg>
                            </g>
                        </g>
                    </g>
                </g>
            </g>
        </g>
    </g>
    <defs v-gra="od"></defs>
</svg>